<?xml version="1.0" encoding="utf-8"?>
<!-- Generator: Adobe Illustrator 22.1.0, SVG Export Plug-In . SVG Version: 6.00 Build 0)  -->
<svg version="1.1" id="Layer_1" xmlns="http://www.w3.org/2000/svg" xmlns:xlink="http://www.w3.org/1999/xlink" x="0px" y="0px"
	 viewBox="0 0 651.4 153.3" style="enable-background:new 0 0 651.4 153.3;" xml:space="preserve">
<style type="text/css">
	.st0{fill:#398ECC;}
	.st1{fill:#241F21;}
	.st2{fill:#A00000;}
	.st3{fill:#FFFFFF;}
</style>
<g>
	<path class="st0" d="M28.5,15.6l0.2-6.7c0-0.1,0.1-0.2,0.2-0.2c0.1,0,0.2,0.1,0.2,0.2l0.2,6.7c0,0.2-0.2,0.4-0.4,0.4
		C28.7,16.1,28.5,15.9,28.5,15.6C28.5,15.7,28.5,15.7,28.5,15.6"/>
	<path class="st0" d="M35.5,25.9L36.1,2c0-0.4,0.4-0.7,0.8-0.7c0.4,0,0.7,0.3,0.7,0.7l0.6,23.9c0,0.8-0.6,1.4-1.3,1.4
		C36.1,27.3,35.5,26.7,35.5,25.9L35.5,25.9L35.5,25.9z"/>
	<path class="st0" d="M43,32.3l0.8-31.3c0-0.5,0.5-1,1-0.9c0.5,0,0.9,0.4,0.9,0.9l0.8,31.3c0,1-0.8,1.8-1.8,1.8
		C43.9,34.1,43,33.3,43,32.3C43,32.3,43,32.3,43,32.3"/>
	<path class="st0" d="M50.8,40.2l0.9-33.9c0-0.6,0.5-1,1.1-1c0.6,0,1,0.5,1,1l0.9,33.9c0,1.1-0.8,2-1.9,2c-1.1,0-2-0.8-2-1.9V40.2
		L50.8,40.2z"/>
	<path class="st0" d="M58.8,48.2l0.9-33.9c0-0.6,0.5-1,1.1-1c0.6,0,1,0.5,1,1l0.9,33.9c0,1.1-0.8,2-1.9,2c-1.1,0-2-0.8-2-1.9V48.2
		L58.8,48.2z"/>
	<path class="st0" d="M66.8,55.6l0.9-33.4c0-0.6,0.5-1,1.1-1c0.6,0,1,0.5,1,1l0.9,33.4c0,1.1-0.8,1.9-1.9,2c-1.1,0-1.9-0.8-2-1.9
		C66.8,55.6,66.8,55.6,66.8,55.6"/>
	<path class="st0" d="M124.1,15.6l0.2-6.7c0-0.1,0.1-0.2,0.2-0.2c0.1,0,0.2,0.1,0.2,0.2l0.2,6.7c0,0.2-0.2,0.4-0.4,0.4
		C124.2,16.1,124.1,15.9,124.1,15.6L124.1,15.6L124.1,15.6z"/>
	<path class="st0" d="M115.1,25.9L115.7,2c0-0.4,0.4-0.7,0.8-0.7c0.4,0,0.7,0.3,0.7,0.7l0.6,23.9c0,0.8-0.6,1.4-1.3,1.4
		C115.8,27.3,115.1,26.7,115.1,25.9C115.1,26,115.1,25.9,115.1,25.9"/>
	<path class="st0" d="M106.7,32.3l0.8-31.3c0-0.5,0.5-1,1-0.9c0.5,0,0.9,0.4,0.9,0.9l0.8,31.3c0,1-0.8,1.8-1.8,1.8
		C107.6,34.1,106.8,33.3,106.7,32.3L106.7,32.3L106.7,32.3z"/>
	<path class="st0" d="M98.6,40.2l0.9-33.9c0-0.6,0.5-1,1.1-1c0.6,0,1,0.5,1,1l0.9,33.9c0,1.1-0.8,2-1.9,2c-1.1,0-2-0.8-2-1.9
		C98.6,40.2,98.6,40.2,98.6,40.2"/>
	<path class="st0" d="M90.6,48.2l0.9-33.9c0-0.6,0.5-1,1.1-1c0.6,0,1,0.5,1,1l0.9,33.9c0,1.1-0.8,2-1.9,2c-1.1,0-2-0.8-2-1.9
		C90.6,48.3,90.6,48.2,90.6,48.2"/>
	<path class="st0" d="M82.7,55.6l0.9-33.4c0-0.6,0.5-1,1.1-1c0.6,0,1,0.5,1,1l0.9,33.4c0,1.1-0.8,1.9-1.9,2c-1.1,0-1.9-0.8-2-1.9
		C82.7,55.6,82.7,55.6,82.7,55.6"/>
	<path class="st0" d="M74.9,60l0.8-30.1c0-0.5,0.4-0.9,1-0.9c0.5,0,0.9,0.4,0.9,0.9L78.4,60c0,1-0.7,1.7-1.7,1.8
		C75.8,61.8,75,61,74.9,60L74.9,60L74.9,60z"/>
	<path class="st0" d="M124.8,137.7l-0.2,6.7c0,0.1-0.1,0.2-0.2,0.2s-0.2-0.1-0.2-0.2l-0.2-6.7c0-0.2,0.2-0.4,0.4-0.4
		C124.7,137.3,124.8,137.5,124.8,137.7L124.8,137.7L124.8,137.7z"/>
	<path class="st0" d="M117.9,127.4l-0.6,23.9c0,0.4-0.4,0.7-0.8,0.7c-0.4,0-0.7-0.3-0.7-0.7l-0.6-23.9c0-0.8,0.6-1.4,1.3-1.4
		C117.2,126,117.8,126.6,117.9,127.4L117.9,127.4L117.9,127.4z"/>
	<path class="st0" d="M110.3,121.1l-0.8,31.3c0,0.5-0.5,1-1,0.9c-0.5,0-0.9-0.4-0.9-0.9l-0.8-31.3c0-1,0.8-1.8,1.8-1.8
		C109.5,119.2,110.3,120,110.3,121.1C110.3,121,110.3,121,110.3,121.1"/>
	<path class="st0" d="M102.5,113.2l-0.9,33.9c0,0.6-0.5,1-1.1,1c-0.6,0-1-0.5-1-1l-0.9-33.9c0-1.1,0.8-2,1.9-2c1.1,0,2,0.8,2,1.9
		C102.5,113.1,102.5,113.2,102.5,113.2"/>
	<path class="st0" d="M94.5,105.1l-0.9,33.9c0,0.6-0.5,1-1.1,1c-0.6,0-1-0.5-1-1l-0.9-33.9c0-1.1,0.8-2,1.9-2c1.1,0,2,0.8,2,1.9
		V105.1L94.5,105.1z"/>
	<path class="st0" d="M86.6,97.8l-0.9,33.4c0,0.6-0.5,1-1.1,1c-0.6,0-1-0.5-1-1l-0.9-33.4c0-1.1,0.8-1.9,1.9-2c1.1,0,1.9,0.8,2,1.9
		C86.6,97.7,86.6,97.7,86.6,97.8"/>
	<path class="st0" d="M29.3,137.7l-0.2,6.7c0,0.1-0.1,0.2-0.2,0.2c-0.1,0-0.2-0.1-0.2-0.2l-0.2-6.7c0-0.2,0.2-0.4,0.4-0.4
		C29.1,137.3,29.3,137.5,29.3,137.7L29.3,137.7L29.3,137.7z"/>
	<path class="st0" d="M38.2,127.4l-0.6,23.9c0,0.4-0.3,0.7-0.8,0.7c-0.4,0-0.7-0.3-0.7-0.7l-0.6-23.9c0-0.8,0.6-1.4,1.3-1.4
		C37.6,126,38.2,126.6,38.2,127.4C38.2,127.4,38.2,127.4,38.2,127.4"/>
	<path class="st0" d="M46.6,121.1l-0.8,31.3c0,0.5-0.5,1-1,0.9c-0.5,0-0.9-0.4-0.9-0.9L43,121.1c0-1,0.8-1.8,1.8-1.8
		C45.8,119.2,46.6,120,46.6,121.1L46.6,121.1L46.6,121.1z"/>
	<path class="st0" d="M54.7,113.2l-0.9,33.9c0,0.6-0.5,1-1.1,1c-0.6,0-1-0.5-1-1l-0.9-33.9c0-1.1,0.8-2,1.9-2c1.1,0,2,0.8,2,1.9
		C54.7,113.1,54.7,113.2,54.7,113.2"/>
	<path class="st0" d="M62.7,105.1l-0.9,33.9c0,0.6-0.5,1-1.1,1c-0.6,0-1-0.5-1-1l-0.9-33.9c0-1.1,0.8-2,1.9-2c1.1,0,2,0.8,2,1.9
		C62.7,105.1,62.7,105.1,62.7,105.1"/>
	<path class="st0" d="M70.6,97.8l-0.9,33.4c0,0.6-0.5,1-1.1,1c-0.6,0-1-0.5-1-1l-0.9-33.4c0-1.1,0.8-1.9,1.9-2c1.1,0,1.9,0.8,2,1.9
		C70.6,97.7,70.6,97.7,70.6,97.8"/>
	<path class="st0" d="M78.4,93.4l-0.8,30.1c0,0.5-0.4,0.9-1,0.9c-0.5,0-0.9-0.4-0.9-0.9l-0.8-30.1c0-1,0.7-1.8,1.7-1.8
		C77.6,91.6,78.4,92.3,78.4,93.4L78.4,93.4L78.4,93.4z"/>
	<path class="st0" d="M137.7,28.5l6.7,0.2c0.1,0,0.2,0.1,0.2,0.2c0,0.1-0.1,0.2-0.2,0.2l-6.7,0.2c-0.2,0-0.4-0.2-0.4-0.4
		C137.3,28.7,137.5,28.5,137.7,28.5L137.7,28.5L137.7,28.5z"/>
	<path class="st0" d="M127.4,35.5l23.9,0.6c0.4,0,0.7,0.3,0.7,0.8c0,0.4-0.3,0.7-0.7,0.7l-23.9,0.6c-0.8,0-1.4-0.6-1.4-1.3
		C126,36.1,126.6,35.5,127.4,35.5L127.4,35.5L127.4,35.5z"/>
	<path class="st0" d="M121.1,43l31.3,0.8c0.5,0,1,0.5,0.9,1c0,0.5-0.4,0.9-0.9,0.9l-31.3,0.8c-1,0-1.8-0.8-1.8-1.8
		C119.2,43.9,120,43,121.1,43C121,43,121.1,43,121.1,43"/>
	<path class="st0" d="M113.2,50.8l33.9,0.9c0.6,0,1,0.5,1,1.1c0,0.6-0.5,1-1,1l-33.9,0.9c-1.1,0-2-0.8-2-1.9c0-1.1,0.8-2,1.9-2
		C113.1,50.8,113.2,50.8,113.2,50.8"/>
	<path class="st0" d="M105.2,58.8l34,0.9c0.6,0,1,0.5,1,1.1c0,0.6-0.5,1-1,1l-34,0.9c-1.1,0-2-0.8-2-1.9c0-1.1,0.8-2,1.9-2
		C105.1,58.8,105.1,58.8,105.2,58.8"/>
	<path class="st0" d="M97.8,66.8l33.4,0.9c0.6,0,1,0.5,1,1.1c0,0.6-0.5,1-1,1l-33.4,0.9c-1.1,0-1.9-0.8-2-1.9c0-1.1,0.8-1.9,1.9-2
		H97.8L97.8,66.8z"/>
	<path class="st0" d="M137.7,124.1l6.7,0.2c0.1,0,0.2,0.1,0.2,0.2c0,0.1-0.1,0.2-0.2,0.2l-6.7,0.2c-0.2,0-0.4-0.2-0.4-0.4
		C137.3,124.2,137.5,124.1,137.7,124.1L137.7,124.1L137.7,124.1z"/>
	<path class="st0" d="M127.4,115.1l23.9,0.6c0.4,0,0.7,0.4,0.7,0.8c0,0.4-0.3,0.7-0.7,0.7l-23.9,0.6c-0.8,0-1.4-0.6-1.4-1.3
		C126,115.8,126.6,115.1,127.4,115.1L127.4,115.1L127.4,115.1z"/>
	<path class="st0" d="M121.1,106.7l31.3,0.8c0.5,0,1,0.5,0.9,1c0,0.5-0.4,0.9-0.9,0.9l-31.3,0.8c-1,0-1.8-0.8-1.8-1.8
		C119.2,107.6,120,106.7,121.1,106.7L121.1,106.7L121.1,106.7z"/>
	<path class="st0" d="M113.2,98.6l33.9,0.9c0.6,0,1,0.5,1,1.1c0,0.6-0.5,1-1,1l-33.9,0.9c-1.1,0-2-0.8-2-1.9c0-1.1,0.8-2,1.9-2
		H113.2L113.2,98.6z"/>
	<path class="st0" d="M105.2,90.6l34,0.9c0.6,0,1,0.5,1,1.1c0,0.6-0.5,1-1,1l-34,0.9c-1.1,0-2-0.8-2-1.9c0-1.1,0.8-2,1.9-2H105.2
		L105.2,90.6z"/>
	<path class="st0" d="M97.8,82.7l33.4,0.9c0.6,0,1,0.5,1,1.1c0,0.6-0.5,1-1,1l-33.4,0.9c-1.1,0-1.9-0.8-2-1.9c0-1.1,0.8-1.9,1.9-2
		C97.7,82.7,97.7,82.7,97.8,82.7"/>
	<path class="st0" d="M93.4,74.9l30.1,0.8c0.5,0,0.9,0.4,0.9,1c0,0.5-0.4,0.9-0.9,0.9l-30.1,0.8c-1,0-1.8-0.7-1.8-1.7
		C91.6,75.8,92.3,75,93.4,74.9C93.3,74.9,93.4,74.9,93.4,74.9"/>
	<path class="st0" d="M15.7,124.8l-6.7-0.2c-0.1,0-0.2-0.1-0.2-0.2c0-0.1,0.1-0.2,0.2-0.2l6.7-0.2c0.2,0,0.4,0.2,0.4,0.4
		C16.1,124.7,15.9,124.8,15.7,124.8L15.7,124.8L15.7,124.8z"/>
	<path class="st0" d="M25.9,117.9l-24-0.6c-0.4,0-0.7-0.4-0.7-0.8c0-0.4,0.3-0.7,0.7-0.7l24-0.6c0.8,0,1.4,0.6,1.4,1.3
		C27.3,117.2,26.7,117.8,25.9,117.9L25.9,117.9L25.9,117.9z"/>
	<path class="st0" d="M32.3,110.3l-31.3-0.8c-0.5,0-1-0.5-0.9-1c0-0.5,0.4-0.9,0.9-0.9l31.3-0.8c1,0,1.8,0.8,1.8,1.8
		C34.1,109.5,33.3,110.3,32.3,110.3L32.3,110.3L32.3,110.3z"/>
	<path class="st0" d="M40.2,102.5l-33.9-0.9c-0.6,0-1-0.5-1-1.1c0-0.6,0.5-1,1-1l33.9-0.9c1.1,0,2,0.8,2,1.9c0,1.1-0.8,2-1.9,2H40.2
		L40.2,102.5z"/>
	<path class="st0" d="M48.2,94.5l-33.9-0.9c-0.6,0-1-0.5-1-1.1c0-0.6,0.5-1,1-1l33.9-0.9c1.1,0,2,0.8,2,1.9c0,1.1-0.8,2-1.9,2H48.2
		L48.2,94.5z"/>
	<path class="st0" d="M55.6,86.5l-33.4-0.9c-0.6,0-1-0.5-1-1.1c0-0.6,0.5-1,1-1l33.4-0.9c1.1,0,1.9,0.8,2,1.9c0,1.1-0.8,1.9-1.9,2
		H55.6L55.6,86.5z"/>
	<path class="st0" d="M15.7,29.3l-6.7-0.2c-0.1,0-0.2-0.1-0.2-0.2c0-0.1,0.1-0.2,0.2-0.2l6.7-0.2c0.2,0,0.4,0.2,0.4,0.4
		C16.1,29.1,15.9,29.3,15.7,29.3L15.7,29.3L15.7,29.3z"/>
	<path class="st0" d="M25.9,38.2L2,37.6c-0.4,0-0.7-0.4-0.7-0.8c0-0.4,0.3-0.7,0.7-0.7l24-0.6c0.8,0,1.4,0.6,1.4,1.3
		C27.3,37.6,26.7,38.2,25.9,38.2L25.9,38.2L25.9,38.2z"/>
	<path class="st0" d="M32.3,46.6L0.9,45.8c-0.5,0-1-0.5-0.9-1c0-0.5,0.4-0.9,0.9-0.9L32.3,43c1,0,1.8,0.8,1.8,1.8
		C34.1,45.8,33.3,46.6,32.3,46.6C32.3,46.6,32.3,46.6,32.3,46.6"/>
	<path class="st0" d="M40.2,54.7L6.3,53.8c-0.6,0-1-0.5-1-1.1c0-0.6,0.5-1,1-1l33.9-0.9c1.1,0,2,0.8,2,1.9c0,1.1-0.8,2-1.9,2
		C40.2,54.7,40.2,54.7,40.2,54.7"/>
	<path class="st0" d="M48.2,62.7l-33.9-0.9c-0.6,0-1-0.5-1-1.1c0-0.6,0.5-1,1-1l33.9-0.9c1.1,0,2,0.8,2,1.9c0,1.1-0.8,2-1.9,2H48.2
		L48.2,62.7z"/>
	<path class="st0" d="M55.6,70.6l-33.4-0.9c-0.6,0-1-0.5-1-1.1c0-0.6,0.5-1,1-1l33.4-0.9c1.1,0,1.9,0.8,2,1.9c0,1.1-0.8,1.9-1.9,2
		C55.6,70.6,55.6,70.6,55.6,70.6"/>
	<path class="st0" d="M60,78.4l-30.1-0.8c-0.5,0-0.9-0.4-0.9-1c0-0.5,0.4-0.9,0.9-0.9L60,74.9c1,0,1.8,0.7,1.8,1.7
		C61.8,77.6,61,78.4,60,78.4L60,78.4L60,78.4z"/>
</g>
<path class="st1" d="M623.5,90.1h-6.7l-9.4,24.2l-10.1-24.2h-6.8l13.6,32.8l0,0v0l0,0l-1.5,3.8c-1.2,2.9-2.6,4.2-5.6,4.2
	c-1,0-2.1-0.2-3.1-0.4v5.6c1.5,0.2,3,0.3,4.6,0.3c6.9,0,8.5-5,10.7-10.4l0.1-0.2l0,0L623.5,90.1L623.5,90.1z"/>
<polygon class="st1" points="234.7,78.1 228.2,78.1 228.2,97.6 205.7,97.6 205.7,78.1 199.1,78.1 199.1,123.1 205.7,123.1 
	205.7,103.5 228.2,103.5 228.2,123.1 234.7,123.1 234.7,78.1 "/>
<path class="st1" d="M270.8,106.5c0-10-5.7-16.6-14.9-16.6c-10,0-15.6,7.2-15.6,16.7c0,9.5,6.1,16.8,15.6,16.8
	c9.2,0.1,13.3-5.7,14.1-10.4h-5.6c-1.3,3.2-4.4,5.1-8.5,5.1c-4.3-0.1-8.6-3.3-9-9.4h23.9C270.8,107.9,270.8,107.1,270.8,106.5
	L270.8,106.5z M264.4,103.8h-17.5c0.8-5,3.7-8.5,8.9-8.5C260.9,95.2,263.8,98.6,264.4,103.8L264.4,103.8z"/>
<path class="st1" d="M306,123.1v-5.2c-1.5,0.1-2.5-1-2.5-4.3c0-1.6-0.1-7-0.1-11.7c0-8-5-12.1-13-12.1c-9.1,0-13,5.6-13.5,11.5h5.9
	c0.4-4,3.4-6.1,7.4-6.1c4.3,0,7,2,7,6.6v0.9l-7.6,0.6c-8.8,0.7-13.6,4.6-13.6,10.5c0,6,4.6,9.7,10.9,9.7c4.7,0,9-2,10.8-4.6
	c1,3.1,3.5,3.8,6.2,4.1C304.7,123.1,305.4,123.1,306,123.1L306,123.1z M297.2,112.5c-0.9,3.1-4.7,5.7-8.9,5.7
	c-2.9,0-5.6-1.7-5.6-4.7c0-2.8,2.3-5,8-5.5l6.5-0.6V112.5L297.2,112.5z"/>
<polygon class="st1" points="311.5,123.1 317.9,123.1 317.9,78.1 311.5,78.1 311.5,123.1 "/>
<path class="st1" d="M340.5,123.1h3.8v-5.6h-3.8c-3.7,0-4.7-1.6-4.7-4.7V95.4l8.3,0.1V90h-8.2V78.1h-6.5V90H324v5.4h5.3l-0.1,18
	C329.3,121.9,334.3,123.1,340.5,123.1L340.5,123.1z"/>
<path class="st1" d="M368.3,89.8c-4.1,0-8.3,1.8-10.7,4.7V78.1h-7v45h7v-20.2c0-4.3,4.3-7.1,8.8-7.1c4.4,0,7.1,2.5,7.1,6.7v20.5h7
	v-21.3C380.4,94.3,375.7,89.8,368.3,89.8L368.3,89.8z"/>
<path class="st1" d="M419.3,91.8c0-7.1-5.7-13.7-12.8-13.7h-19.3v45h6.6v-17.6h12.7C413.6,105.4,419.3,99,419.3,91.8L419.3,91.8z
	 M413.3,91.9c0,4.3-3.3,8.2-7.4,8.2h-12.1V83.8h12.1C410,83.8,413.3,87.7,413.3,91.9L413.3,91.9z"/>
<path class="st1" d="M451.5,123.1v-5.2c-1.5,0.1-2.5-1-2.5-4.3c0-1.6-0.1-7-0.1-11.7c0-8-5-12.1-13-12.1c-9.1,0-13,5.6-13.5,11.5
	h5.9c0.4-4,3.4-6.1,7.4-6.1c4.3,0,7,2,7,6.6v0.9l-7.6,0.6c-8.8,0.7-13.6,4.6-13.6,10.5c0,6,4.6,9.7,10.9,9.7c4.7,0,9-2,10.8-4.6
	c1,3.1,3.5,3.8,6.2,4.1C450.2,123.1,450.9,123.1,451.5,123.1L451.5,123.1z M442.7,112.5c-0.9,3.1-4.7,5.7-8.9,5.7
	c-2.9,0-5.6-1.7-5.6-4.7c0-2.8,2.3-5,8-5.5l6.5-0.6V112.5L442.7,112.5z"/>
<path class="st1" d="M469.4,123.1h3.8v-5.6h-3.8c-3.7,0-4.7-1.6-4.7-4.7V95.4l8.3,0.1V90h-8.2V78.1h-6.5V90H453v5.4h5.3l-0.1,18
	C458.2,121.9,463.3,123.1,469.4,123.1L469.4,123.1z"/>
<path class="st1" d="M496.9,89.8c-4.1,0-8.3,1.8-10.7,4.7V78.1h-7v45h7v-20.2c0-4.3,4.3-7.1,8.8-7.1c4.4,0,7.1,2.5,7.1,6.7v20.5h7
	v-21.3C509.1,94.3,504.4,89.8,496.9,89.8L496.9,89.8z"/>
<polygon class="st1" points="559,90.2 551.4,90.2 545.1,115 538.8,90.2 532.5,90.2 526.2,115 519.5,90.2 511.8,90.2 522,123.1 
	529.8,123.1 535.4,102.2 541.1,123.1 548.8,123.1 559,90.2 "/>
<path class="st1" d="M590.9,123.1v-5.2c-1.5,0.1-2.5-1-2.5-4.3c0-1.6-0.1-7-0.1-11.7c0-8-5-12.1-13-12.1c-9.1,0-13,5.6-13.5,11.5
	h5.9c0.4-4,3.4-6.1,7.4-6.1c4.3,0,7,2,7,6.6v0.9l-7.6,0.6c-8.8,0.7-13.6,4.6-13.6,10.5c0,6,4.6,9.7,10.9,9.7c4.7,0,9-2,10.8-4.6
	c1,3.1,3.5,3.8,6.2,4.1C589.6,123.1,590.2,123.1,590.9,123.1L590.9,123.1z M582.1,112.5c-0.9,3.1-4.7,5.7-8.9,5.7
	c-2.9,0-5.6-1.7-5.6-4.7c0-2.8,2.3-5,8-5.5l6.5-0.6V112.5L582.1,112.5z"/>
<path class="st1" d="M638.7,123.6c7.5,0,12.7-4.3,12.7-10.3c0-6.5-5.8-8.6-10.7-9.8c-4.1-1-7.7-1.7-7.7-4.9c0-2.7,2.8-3.9,5.9-3.8
	c2.3,0.1,5.5,1.3,6.1,4.5h5.8c-0.7-6.5-6.1-9.7-12.4-9.7c-7,0-12.4,3.7-12.4,9.8c0,6.1,5.6,7.9,10.7,9c4.4,1,7.9,2.1,7.9,5.3
	c0,2.8-2.2,4.7-5.9,4.8c-3.8,0.1-7.1-2.5-7.7-5.5H625C625.5,117.7,629.7,123.6,638.7,123.6L638.7,123.6z"/>
<path class="st0" d="M535.3,26.8h-6.7L519.3,51l-10.1-24.2h-6.8l13.6,32.8l0,0v0l0,0l-1.5,3.8c-1.2,2.9-2.6,4.2-5.6,4.2
	c-1,0-2.1-0.2-3.1-0.4v5.6c1.5,0.2,3,0.3,4.6,0.3c6.9,0,8.5-5,10.7-10.4l0.1-0.2l0,0L535.3,26.8L535.3,26.8z"/>
<path class="st0" d="M217.8,60.4c11.4-0.1,19.1-8.5,19.9-15.6h-6.5c-0.7,4-5.3,9.4-13.4,9.4c-9.6,0-15.5-7.5-15.5-16.9
	c0-9.4,5.9-16.9,15.5-16.9c8.9,0,12.7,5.8,13.4,9.8h6.5c-0.7-8-7.8-16.1-19.9-16.1c-13,0-21.7,10.3-21.7,23.1S204.9,60.5,217.8,60.4
	L217.8,60.4z"/>
<path class="st0" d="M275.2,43.3c0-9.5-6.7-17-16.4-17c-9.7,0-16.4,7.5-16.4,17c0,9.4,6.7,17,16.4,17
	C268.5,60.2,275.2,52.7,275.2,43.3L275.2,43.3z M268.5,43.3c0,6.1-3.8,10.9-9.6,10.9c-5.8,0-9.6-4.8-9.6-10.9
	c0-6.1,3.8-10.9,9.6-10.9C264.6,32.3,268.5,37.1,268.5,43.3L268.5,43.3z"/>
<path class="st0" d="M318.8,26.5c-4.7,0-9.3,2.4-11.6,5.9c-2-3.6-5.1-5.9-9.7-5.9c-4,0-8.1,1.8-10.3,4.7l-0.3-4.4h-6.2v33h6.9V39.4
	c0-4.2,3.9-6.9,8-6.9c4.1,0,6.4,2.4,6.4,6.4v20.9h6.9V39.4c0-4.2,3.9-6.9,8-6.9c4.1,0,6.4,2.4,6.4,6.4v20.9h6.9V38.2
	C330.1,30.9,325.9,26.5,318.8,26.5L318.8,26.5z"/>
<path class="st0" d="M375,26.5c-4.7,0-9.3,2.4-11.6,5.9c-2-3.6-5.1-5.9-9.7-5.9c-4,0-8.1,1.8-10.3,4.7l-0.3-4.4h-6.2v33h6.9V39.4
	c0-4.2,3.9-6.9,8-6.9c4.1,0,6.4,2.4,6.4,6.4v20.9h6.9V39.4c0-4.2,3.9-6.9,8-6.9c4.1,0,6.4,2.4,6.4,6.4v20.9h6.9V38.2
	C386.4,30.9,382.1,26.5,375,26.5L375,26.5z"/>
<path class="st0" d="M422.5,26.8h-6.8v20c0,4.3-4.4,7.2-8.8,7.2c-4.4,0-7.2-2.9-7.2-7.2v-20h-6.9v20.8c0,7.3,5,12.5,12.2,12.5
	c4.1,0,8.5-2,10.9-5.1l0.5,4.7h6.1V26.8L422.5,26.8z"/>
<path class="st0" d="M446.7,26.4c-4.2,0-8.5,1.9-10.9,5l-0.5-4.6h-6.1v33h6.9V39.6c0-4.3,4.2-7.1,8.7-7.1c4.4,0,7,2.5,7,6.8v20.6
	h6.9V38.5C458.7,31,454.1,26.4,446.7,26.4L446.7,26.4z"/>
<path class="st0" d="M468.9,22.5c2.1,0,3.8-1.7,3.8-3.8s-1.7-3.9-3.8-3.9c-2.1,0-3.8,1.7-3.8,3.9S466.8,22.5,468.9,22.5L468.9,22.5z
	"/>
<polygon class="st0" points="465.5,26.8 465.5,59.8 472.3,59.8 472.3,26.8 465.5,26.8 "/>
<path class="st0" d="M494.8,59.9h3.8v-5.6h-3.8c-3.7,0-4.7-1.6-4.7-4.7V32.1l8.3,0.1v-5.5h-8.2V14.8h-6.5v11.9h-5.3v5.4h5.3l-0.1,18
	C483.6,58.6,488.7,59.9,494.8,59.9L494.8,59.9z"/>

</svg>
